<svg xmlns="http://www.w3.org/2000/svg" viewBox="0 0 11 13.22"><defs><style>.cls-1{fill:#eae2b7;}</style></defs><g id="Layer_2" data-name="Layer 2"><g id="Layer_1-2" data-name="Layer 1"><path class="cls-1" d="M5.5,3.33A2.17,2.17,0,1,0,7.67,5.5,2.17,2.17,0,0,0,5.5,3.33Zm0,3.34A1.17,1.17,0,1,1,6.67,5.5,1.18,1.18,0,0,1,5.5,6.67Z"/><path class="cls-1" d="M9.39,1.61A5.5,5.5,0,0,0,0,5.5c0,2.15,1.37,4.07,2.64,5.41a16.79,16.79,0,0,0,1.77,1.62L5,13l.17.11,0,0h0a.52.52,0,0,0,.56,0h0l0,0L6,13l.58-.45a16.79,16.79,0,0,0,1.77-1.62C9.63,9.57,11,7.65,11,5.5A5.5,5.5,0,0,0,9.39,1.61ZM5.5,12.72Zm2.14-2.49A17.08,17.08,0,0,1,6,11.75l-.47.36L5,11.75a17.08,17.08,0,0,1-1.67-1.52A7.42,7.42,0,0,1,1,5.5,4.5,4.5,0,0,1,8.68,2.32,4.47,4.47,0,0,1,10,5.5,7.42,7.42,0,0,1,7.64,10.23Z"/></g></g></svg>