<svg width="218" height="122" viewBox="0 0 218 122" fill="none" xmlns="http://www.w3.org/2000/svg">
<path d="M48.5291 36.3405L36.2104 23.9564C34.8262 22.5651 32.4507 23.5451 32.4507 25.508V33.1239C32.4507 33.2254 32.3625 33.3388 32.2181 33.3434C23.4659 33.6225 15.9624 36.8942 9.75582 43.1337C3.25818 49.6658 0 57.5942 0 66.862C0 76.1297 3.25818 84.0581 9.75582 90.5902C16.255 97.1238 24.1727 100.4 33.4507 100.4C38.5909 100.4 43.4544 99.2558 48.0286 96.9689C49.3938 96.2863 49.5882 94.4991 48.5473 93.4853L44.8746 89.9086C44.2224 89.2733 43.2668 89.1206 42.4588 89.4553C39.5438 90.6622 36.5434 91.2637 33.4507 91.2637C26.7331 91.2637 21.0463 88.8795 16.3327 84.0864C11.6145 79.2886 9.2676 73.565 9.2676 66.862C9.2676 60.1588 11.6145 54.4353 16.3327 49.6375C20.7766 45.1187 26.0818 42.7447 32.2925 42.4842C32.3591 42.4814 32.4507 42.5383 32.4507 42.6602V50.2762C32.4507 52.2388 34.8261 53.2193 36.2104 51.8276L48.5291 39.4436C49.3828 38.5853 49.3828 37.1987 48.5291 36.3405Z" fill="#114B5F"/>
<path d="M184.549 21.6C179.409 21.6 174.546 22.7442 169.971 25.031C168.606 25.7137 168.412 27.5008 169.453 28.5147L173.125 32.0913C173.777 32.7267 174.733 32.8794 175.541 32.5447C178.456 31.3378 181.457 30.7363 184.549 30.7363C191.267 30.7363 196.954 33.1205 201.667 37.9136C206.386 42.7114 208.732 48.435 208.732 55.138C208.732 61.8412 206.386 67.5647 201.667 72.3626C197.223 76.8813 191.918 79.2553 185.708 79.5158C185.641 79.5186 185.549 79.4617 185.549 79.3398V71.7238C185.549 69.7612 183.174 68.7807 181.79 70.1724L169.471 82.5564C168.617 83.4147 168.617 84.8013 169.471 85.6595L181.79 98.0437C183.174 99.435 185.549 98.4549 185.549 96.492V88.8761C185.549 88.7746 185.637 88.6612 185.782 88.6566C194.534 88.3775 202.038 85.1058 208.244 78.8663C214.742 72.3342 218 64.4058 218 55.138C218 45.8703 214.742 37.9419 208.244 31.4098C201.745 24.8762 193.827 21.6 184.549 21.6Z" fill="#114B5F"/>
<path fill-rule="evenodd" clip-rule="evenodd" d="M146 17.8C146 7.96932 138.031 0 128.2 0H89.8C79.9693 0 72 7.96932 72 17.8V104.2C72 114.031 79.9693 122 89.8 122H128.2C138.031 122 146 114.031 146 104.2V17.8ZM126.74 9.2H128.2C132.95 9.2 136.8 13.0504 136.8 17.8V104.2C136.8 108.95 132.95 112.8 128.2 112.8H89.8C85.0504 112.8 81.2 108.95 81.2 104.2V17.8C81.2 13.0504 85.0504 9.2 89.8 9.2H91.2604C91.7536 13.2571 95.2098 16.4 99.4 16.4H118.6C122.79 16.4 126.246 13.2571 126.74 9.2Z" fill="#114B5F"/>
</svg>
