<svg width="150" height="150" viewBox="0 0 150 150" fill="none" xmlns="http://www.w3.org/2000/svg">
<path d="M144.375 0H5.62504C4.13373 0.00173682 2.704 0.594927 1.64948 1.64944C0.59497 2.70396 0.00177989 4.13369 4.30635e-05 5.625V17.5C4.30635e-05 18.163 0.263435 18.7989 0.732276 19.2678C1.20112 19.7366 1.837 20 2.50004 20H3.80754L0.178793 29.0716C0.0270683 29.4509 -0.0293798 29.8616 0.0143881 30.2678C0.058156 30.674 0.200806 31.0633 0.429856 31.4016C0.658906 31.7399 0.967375 32.0169 1.32827 32.2084C1.68917 32.3999 2.09149 32.5 2.50004 32.5H3.80754L0.178793 41.5716C0.0270683 41.9509 -0.0293798 42.3616 0.0143881 42.7678C0.058156 43.174 0.200806 43.5633 0.429856 43.9016C0.658906 44.2399 0.967375 44.5169 1.32827 44.7084C1.68917 44.8999 2.09149 45 2.50004 45H3.80754L0.178793 54.0716C0.0270683 54.4509 -0.0293798 54.8616 0.0143881 55.2678C0.058156 55.674 0.200806 56.0633 0.429856 56.4016C0.658906 56.7399 0.967375 57.0169 1.32827 57.2084C1.68917 57.3999 2.09149 57.5 2.50004 57.5H3.80754L0.178793 66.5716C0.0270683 66.9509 -0.0293798 67.3616 0.0143881 67.7678C0.058156 68.174 0.200806 68.5633 0.429856 68.9016C0.658906 69.2399 0.967375 69.5169 1.32827 69.7084C1.68917 69.8999 2.09149 70 2.50004 70H5.00004V147.5C5.00004 148.163 5.26343 148.799 5.73227 149.268C6.20111 149.737 6.837 150 7.50004 150H142.5C143.163 150 143.799 149.737 144.268 149.268C144.737 148.799 145 148.163 145 147.5V70H147.5C147.908 70 148.311 69.8999 148.672 69.7084C149.033 69.5169 149.341 69.2399 149.57 68.9016C149.799 68.5633 149.942 68.174 149.986 67.7678C150.029 67.3616 149.973 66.9509 149.821 66.5716L146.192 57.5H147.5C147.908 57.5 148.311 57.3999 148.672 57.2084C149.033 57.0169 149.341 56.7399 149.57 56.4016C149.799 56.0633 149.942 55.674 149.986 55.2678C150.029 54.8616 149.973 54.4509 149.821 54.0716L146.192 45H147.5C147.908 45 148.311 44.8999 148.672 44.7084C149.033 44.5169 149.341 44.2399 149.57 43.9016C149.799 43.5633 149.942 43.174 149.986 42.7678C150.029 42.3616 149.973 41.9509 149.821 41.5716L146.192 32.5H147.5C147.908 32.5 148.311 32.3999 148.672 32.2084C149.033 32.0169 149.341 31.7399 149.57 31.4016C149.799 31.0633 149.942 30.674 149.986 30.2678C150.029 29.8616 149.973 29.4509 149.821 29.0716L146.192 20H147.5C148.163 20 148.799 19.7366 149.268 19.2678C149.737 18.7989 150 18.163 150 17.5V5.625C149.998 4.13369 149.405 2.70396 148.351 1.64944C147.296 0.594927 145.866 0.00173682 144.375 0ZM6.19254 65L9.19254 57.5H12.5V65H6.19254ZM9.19254 32.5H12.5V40H6.19254L9.19254 32.5ZM6.19254 27.5L9.19254 20H12.5V27.5H6.19254ZM9.19254 45H12.5V52.5H6.19254L9.19254 45ZM140 145H10V70H15V137.5C15 138.163 15.2634 138.799 15.7323 139.268C16.2011 139.737 16.837 140 17.5 140H132.5C133.163 140 133.799 139.737 134.268 139.268C134.737 138.799 135 138.163 135 137.5V70H140V145ZM122.5 32.5V40H27.5V32.5H122.5ZM27.5 27.5V20H122.5V27.5H27.5ZM122.5 45V52.5H27.5V45H122.5ZM122.5 57.5V65H27.5V57.5H122.5ZM117.5 77.5C118.163 77.5 118.799 77.7634 119.268 78.2322C119.737 78.7011 120 79.337 120 80C120 80.663 119.737 81.2989 119.268 81.7678C118.799 82.2366 118.163 82.5 117.5 82.5H100C99.4282 82.5005 98.8735 82.3048 98.4287 81.9455C97.9838 81.5863 97.6757 81.0853 97.5557 80.5263C97.4357 79.9672 97.5112 79.3839 97.7695 78.8738C98.0278 78.3636 98.4533 77.9576 98.975 77.7234C99.529 77.4728 99.9728 77.029 100.223 76.475C100.421 76.0366 100.741 75.6643 101.145 75.4028C101.549 75.1412 102.019 75.0014 102.5 75C102.572 75 102.643 75.0066 102.714 75.0128C103.265 75.0582 103.817 74.9194 104.281 74.6181C104.746 74.3169 105.097 73.8701 105.281 73.3478C105.671 72.2332 106.443 71.2926 107.46 70.6926C108.477 70.0927 109.674 69.8721 110.838 70.07C112.002 70.2679 113.059 70.8715 113.821 71.7739C114.582 72.6762 115 73.8191 115 75C115 75.663 115.263 76.2989 115.732 76.7678C116.201 77.2366 116.837 77.5 117.5 77.5ZM35 102.5V105H30V102.5C30 101.837 30.2634 101.201 30.7323 100.732C31.2011 100.263 31.837 100 32.5 100C33.1631 100 33.7989 100.263 34.2678 100.732C34.7366 101.201 35 101.837 35 102.5ZM30 70V95.43C28.5389 95.9485 27.274 96.9063 26.3788 98.1721C25.4837 99.4379 25.002 100.95 25 102.5V107.5C25 108.163 25.2634 108.799 25.7323 109.268C26.2011 109.737 26.837 110 27.5 110H37.5C38.1631 110 38.7989 109.737 39.2678 109.268C39.7366 108.799 40 108.163 40 107.5V102.5C39.998 100.95 39.5164 99.4379 38.6212 98.1721C37.726 96.9063 36.4611 95.9485 35 95.43V70H101.344C101.324 70.0338 101.302 70.0659 101.283 70.1C100.218 70.2776 99.2045 70.682 98.3101 71.2859C97.4156 71.8898 96.6616 72.679 96.099 73.6C94.7024 74.4508 93.6222 75.7348 93.0232 77.2565C92.4241 78.7782 92.3391 80.4541 92.781 82.0286C93.2228 83.6031 94.1674 84.99 95.4707 85.9778C96.7741 86.9656 98.3646 87.5002 100 87.5H117.5C119.291 87.5005 121.022 86.8603 122.382 85.6952C123.742 84.53 124.64 82.9168 124.914 81.1472C125.188 79.3776 124.819 77.5684 123.876 76.0467C122.932 74.525 121.475 73.3912 119.767 72.8503C119.546 71.8485 119.172 70.8871 118.656 70H130V92.5H104.994C104.885 92.501 104.776 92.5093 104.668 92.5247C104.642 92.5278 104.617 92.5316 104.591 92.5356C104.484 92.553 104.377 92.5772 104.273 92.6081C104.265 92.6106 104.257 92.6141 104.248 92.6169C104.15 92.6481 104.054 92.6854 103.961 92.7284L103.903 92.7553C103.802 92.8038 103.705 92.8589 103.612 92.9203L103.606 92.925C103.519 92.9843 103.435 93.0491 103.356 93.1188C103.335 93.1369 103.315 93.1553 103.293 93.1741C103.272 93.1928 103.25 93.2113 103.231 93.2319L90.7309 105.732L90.7256 105.738C90.6499 105.815 90.5792 105.897 90.514 105.984C90.4984 106.004 90.4828 106.025 90.4675 106.046C90.4034 106.135 90.3453 106.227 90.2934 106.323C90.2894 106.33 90.2865 106.338 90.2828 106.345C90.2352 106.437 90.1934 106.532 90.1578 106.63C90.1506 106.649 90.1431 106.668 90.1366 106.688C90.0996 106.793 90.07 106.901 90.0478 107.01V107.019C90.0284 107.122 90.0155 107.227 90.009 107.332C90.0072 107.36 90.0059 107.388 90.005 107.417C90.004 107.445 90.0006 107.472 90.0006 107.501V135.001H85V120C85 116.685 83.683 113.505 81.3388 111.161C78.9946 108.817 75.8152 107.5 72.5 107.5C69.1848 107.5 66.0054 108.817 63.6612 111.161C61.317 113.505 60 116.685 60 120V120.007C58.144 118.612 55.936 117.761 53.6236 117.551C51.3113 117.341 48.9861 117.78 46.9091 118.817C44.8321 119.855 43.0854 121.451 41.8649 123.427C40.6445 125.402 39.9987 127.678 40 130V135H35V127.5C35.5108 127.5 36.0093 127.343 36.4285 127.052C36.8477 126.76 37.1674 126.346 37.3446 125.867C37.5218 125.388 37.548 124.866 37.4197 124.372C37.2914 123.878 37.0147 123.434 36.6269 123.102L20 108.85V70H30ZM132.5 32.5V40H127.5V32.5H132.5ZM127.5 27.5V20H132.5V27.5H127.5ZM132.5 45V52.5H127.5V45H132.5ZM132.5 57.5V65H127.5V57.5H132.5ZM130 120V125H125V130H130V135H120V110H130V115H125V120H130ZM118.536 105L111.036 97.5H130V105H118.536ZM115 110V135H95V110H115ZM98.5353 105L105 98.5356L111.464 105H98.5353ZM75 130V112.93C76.4611 113.448 77.726 114.406 78.6212 115.672C79.5164 116.938 79.998 118.45 80 120V126.25L75 130ZM80 132.5V135H76.6669L80 132.5ZM65.0938 118.82C65.3084 117.489 65.8771 116.24 66.7403 115.203C67.6034 114.167 68.7293 113.382 70 112.93V122.5L65.0938 118.82ZM70 128.75V135H65V125L70 128.75ZM60 130V135H55V122.93C56.4611 123.448 57.726 124.406 58.6212 125.672C59.5164 126.938 59.998 128.45 60 130ZM45.7225 126.792C46.5808 124.989 48.1191 123.6 50 122.93V130L45.7225 126.792ZM48.3331 135H45V132.5L48.3331 135ZM30 127.5V135H20V127.5H30ZM20 122.5V115.436L28.2419 122.5H20ZM22.5 27.5H17.5V20H22.5V27.5ZM22.5 32.5V40H17.5V32.5H22.5ZM22.5 45V52.5H17.5V45H22.5ZM22.5 57.5V65H17.5V57.5H22.5ZM137.5 65V57.5H140.807L143.807 65H137.5ZM137.5 52.5V45H140.807L143.807 52.5H137.5ZM137.5 40V32.5H140.807L143.807 40H137.5ZM137.5 27.5V20H140.807L143.807 27.5H137.5ZM145 15H5.00004V5.625C5.00004 5.45924 5.06589 5.30027 5.1831 5.18306C5.30031 5.06585 5.45928 5 5.62504 5H144.375C144.541 5 144.7 5.06585 144.817 5.18306C144.934 5.30027 145 5.45924 145 5.625V15Z" fill="#114B5F"/>
<path d="M107.5 115H102.5V120H107.5V115Z" fill="#114B5F"/>
<path d="M107.5 125H102.5V130H107.5V125Z" fill="#114B5F"/>
<path d="M57.5 102.5H75C76.7907 102.501 78.5224 101.86 79.8822 100.695C81.2419 99.53 82.1399 97.9168 82.4138 96.1472C82.6877 94.3776 82.3195 92.5684 81.3756 91.0467C80.4317 89.525 78.9745 88.3912 77.2675 87.8503C76.8322 85.8712 75.806 84.071 74.3246 82.6882C72.8433 81.3054 70.9768 80.4053 68.9724 80.1071C66.968 79.8089 64.9203 80.1267 63.1006 81.0184C61.2809 81.9101 59.775 83.3336 58.7825 85.1003C57.718 85.2779 56.7042 85.6823 55.8098 86.2862C54.9153 86.8901 54.1613 87.6793 53.5988 88.6003C52.2022 89.4511 51.1222 90.7352 50.5233 92.2569C49.9243 93.7786 49.8393 95.4543 50.2812 97.0288C50.7231 98.6032 51.6677 99.99 52.971 100.978C54.2742 101.966 55.8647 102.5 57.5 102.5ZM56.475 92.7234C57.0296 92.4732 57.474 92.0293 57.725 91.475C57.9227 91.0368 58.2424 90.6647 58.6458 90.4032C59.0491 90.1417 59.5193 90.0017 60 90C60.0719 90 60.1428 90.0066 60.2138 90.0128C60.7656 90.0588 61.3171 89.9202 61.7816 89.6188C62.2462 89.3175 62.5976 88.8704 62.7806 88.3478C63.1707 87.2332 63.9427 86.2926 64.9598 85.6926C65.977 85.0927 67.1737 84.8721 68.3379 85.07C69.5021 85.2679 70.5587 85.8715 71.3205 86.7739C72.0823 87.6762 72.5002 88.8191 72.5 90C72.5 90.663 72.7634 91.2989 73.2322 91.7678C73.7011 92.2366 74.337 92.5 75 92.5C75.663 92.5 76.2989 92.7634 76.7678 93.2322C77.2366 93.7011 77.5 94.337 77.5 95C77.5 95.663 77.2366 96.2989 76.7678 96.7678C76.2989 97.2366 75.663 97.5 75 97.5H57.5C56.9282 97.5005 56.3736 97.3048 55.9287 96.9455C55.4838 96.5863 55.1757 96.0853 55.0557 95.5263C54.9357 94.9672 55.0112 94.3839 55.2695 93.8738C55.5278 93.3636 55.9534 92.9576 56.475 92.7234Z" fill="#114B5F"/>
<path d="M87.5 80H82.5V85H87.5V80Z" fill="#114B5F"/>
<path d="M45 80H40V85H45V80Z" fill="#114B5F"/>
<path d="M55 75H50V80H55V75Z" fill="#114B5F"/>
</svg>
